<?xml version="1.0" encoding="UTF-8"?>
<svg width="700pt" height="700pt" version="1.1" viewBox="0 0 700 700" xmlns="http://www.w3.org/2000/svg" xmlns:xlink="http://www.w3.org/1999/xlink">
 <defs>
  <symbol id="t" overflow="visible">
   <path d="m22.656-1.3594c-1.168 0.60547-2.3867 1.0625-3.6562 1.375-1.2617 0.3125-2.5781 0.46875-3.9531 0.46875-4.1172 0-7.3711-1.1445-9.7656-3.4375-2.3984-2.3008-3.5938-5.4141-3.5938-9.3438 0-3.9375 1.1953-7.0508 3.5938-9.3438 2.3945-2.3008 5.6484-3.4531 9.7656-3.4531 1.375 0 2.6914 0.15625 3.9531 0.46875 1.2695 0.30469 2.4883 0.75781 3.6562 1.3594v5.1094c-1.1797-0.80078-2.3398-1.3906-3.4844-1.7656-1.1484-0.375-2.3555-0.5625-3.625-0.5625-2.2617 0-4.043 0.73047-5.3438 2.1875-1.3047 1.4492-1.9531 3.4492-1.9531 6 0 2.543 0.64844 4.543 1.9531 6 1.3008 1.4492 3.082 2.1719 5.3438 2.1719 1.2695 0 2.4766-0.1875 3.625-0.5625 1.1445-0.375 2.3047-0.96094 3.4844-1.7656z"/>
  </symbol>
  <symbol id="d" overflow="visible">
   <path d="m16.578-13.453c-0.52344-0.23828-1.0391-0.41406-1.5469-0.53125-0.51172-0.125-1.0273-0.1875-1.5469-0.1875-1.5234 0-2.6953 0.49219-3.5156 1.4688-0.8125 0.96875-1.2188 2.3672-1.2188 4.1875v8.5156h-5.9062v-18.484h5.9062v3.0312c0.75781-1.207 1.6289-2.0859 2.6094-2.6406 0.98828-0.5625 2.1719-0.84375 3.5469-0.84375 0.19531 0 0.41016 0.011719 0.64062 0.03125 0.23828 0.011719 0.57812 0.042969 1.0156 0.09375z"/>
  </symbol>
  <symbol id="a" overflow="visible">
   <path d="m21.297-9.2969v1.6875h-13.812c0.13281 1.3867 0.62891 2.4297 1.4844 3.125 0.86328 0.6875 2.0664 1.0312 3.6094 1.0312 1.25 0 2.5234-0.17969 3.8281-0.54688 1.3008-0.375 2.6406-0.92969 4.0156-1.6719v4.5469c-1.3984 0.53125-2.7969 0.93359-4.2031 1.2031-1.3984 0.26953-2.793 0.40625-4.1875 0.40625-3.3438 0-5.9453-0.84766-7.7969-2.5469-1.8555-1.707-2.7812-4.0977-2.7812-7.1719 0-3.0078 0.91016-5.3789 2.7344-7.1094 1.8203-1.7266 4.3281-2.5938 7.5156-2.5938 2.9062 0 5.2266 0.875 6.9688 2.625 1.75 1.75 2.625 4.0898 2.625 7.0156zm-6.0781-1.9688c0-1.1133-0.32812-2.0156-0.98438-2.7031s-1.5117-1.0312-2.5625-1.0312c-1.1484 0-2.0781 0.32422-2.7969 0.96875-0.71094 0.63672-1.1523 1.5586-1.3281 2.7656z"/>
  </symbol>
  <symbol id="j" overflow="visible">
   <path d="m11.125-8.3281c-1.2305 0-2.1562 0.21484-2.7812 0.64062-0.625 0.41797-0.9375 1.0312-0.9375 1.8438 0 0.75 0.25 1.3398 0.75 1.7656 0.50781 0.41797 1.207 0.625 2.0938 0.625 1.1133 0 2.0508-0.39453 2.8125-1.1875 0.75781-0.80078 1.1406-1.8008 1.1406-3v-0.6875zm9.0312-2.2188v10.547h-5.9531v-2.7344c-0.79297 1.1172-1.6875 1.9336-2.6875 2.4531-0.99219 0.50781-2.1953 0.76562-3.6094 0.76562-1.918 0-3.4766-0.55469-4.6719-1.6719-1.1875-1.125-1.7812-2.5781-1.7812-4.3594 0-2.1641 0.74219-3.7539 2.2344-4.7656 1.4883-1.0195 3.832-1.5312 7.0312-1.5312h3.4844v-0.45312c0-0.9375-0.37109-1.6172-1.1094-2.0469-0.74219-0.4375-1.8906-0.65625-3.4531-0.65625-1.2617 0-2.4375 0.125-3.5312 0.375s-2.1055 0.63281-3.0312 1.1406v-4.5156c1.2578-0.30078 2.5234-0.53125 3.7969-0.6875 1.2812-0.16406 2.5625-0.25 3.8438-0.25 3.332 0 5.7383 0.66406 7.2188 1.9844 1.4766 1.3125 2.2188 3.4492 2.2188 6.4062z"/>
  </symbol>
  <symbol id="c" overflow="visible">
   <path d="m9.2969-23.734v5.25h6.0938v4.2188h-6.0938v7.8438c0 0.85547 0.16406 1.4336 0.5 1.7344 0.34375 0.30469 1.0234 0.45312 2.0469 0.45312h3.0312v4.2344h-5.0625c-2.3359 0-3.9922-0.48438-4.9688-1.4531-0.96875-0.97656-1.4531-2.6328-1.4531-4.9688v-7.8438h-2.9375v-4.2188h2.9375v-5.25z"/>
  </symbol>
  <symbol id="i" overflow="visible">
   <path d="m15.422-15.781v-9.9062h5.9375v25.688h-5.9375v-2.6719c-0.8125 1.0859-1.7109 1.8828-2.6875 2.3906-0.98047 0.50781-2.1172 0.76562-3.4062 0.76562-2.2812 0-4.1562-0.90625-5.625-2.7188-1.4609-1.8125-2.1875-4.1445-2.1875-7 0-2.8438 0.72656-5.1719 2.1875-6.9844 1.4688-1.8125 3.3438-2.7188 5.625-2.7188 1.2812 0 2.4102 0.25781 3.3906 0.76562 0.98828 0.51172 1.8906 1.3086 2.7031 2.3906zm-3.8906 11.969c1.2578 0 2.2227-0.46094 2.8906-1.3906 0.66406-0.92578 1-2.2695 1-4.0312 0-1.7578-0.33594-3.0977-1-4.0156-0.66797-0.92578-1.6328-1.3906-2.8906-1.3906-1.2617 0-2.2266 0.46484-2.8906 1.3906-0.66797 0.91797-1 2.2578-1 4.0156 0 1.7617 0.33203 3.1055 1 4.0312 0.66406 0.92969 1.6289 1.3906 2.8906 1.3906z"/>
  </symbol>
  <symbol id="h" overflow="visible">
   <path d="m12.688-3.8125c1.2578 0 2.2227-0.46094 2.8906-1.3906 0.66406-0.92578 1-2.2695 1-4.0312 0-1.7578-0.33594-3.0977-1-4.0156-0.66797-0.92578-1.6328-1.3906-2.8906-1.3906-1.2734 0-2.2461 0.46484-2.9219 1.3906-0.67969 0.92969-1.0156 2.2656-1.0156 4.0156s0.33594 3.0938 1.0156 4.0312c0.67578 0.92969 1.6484 1.3906 2.9219 1.3906zm-3.9375-11.969c0.8125-1.082 1.7109-1.8789 2.7031-2.3906 0.98828-0.50781 2.1289-0.76562 3.4219-0.76562 2.2812 0 4.1484 0.90625 5.6094 2.7188 1.4688 1.8125 2.2031 4.1406 2.2031 6.9844 0 2.8555-0.73438 5.1875-2.2031 7-1.4609 1.8125-3.3281 2.7188-5.6094 2.7188-1.293 0-2.4336-0.25781-3.4219-0.76562-0.99219-0.51953-1.8906-1.3164-2.7031-2.3906v2.6719h-5.9062v-25.688h5.9062z"/>
  </symbol>
  <symbol id="g" overflow="visible">
   <path d="m0.40625-18.484h5.9219l4.9688 12.547 4.2188-12.547h5.9219l-7.7812 20.234c-0.78125 2.0625-1.6953 3.5-2.7344 4.3125-1.043 0.82031-2.418 1.2344-4.125 1.2344h-3.4062v-3.875h1.8438c1 0 1.7266-0.16406 2.1875-0.48438 0.45703-0.32422 0.8125-0.89844 1.0625-1.7188l0.17188-0.51562z"/>
  </symbol>
  <symbol id="e" overflow="visible">
   <path d="m3.1094-24.656h10.547c3.1328 0 5.5391 0.69922 7.2188 2.0938 1.6758 1.3984 2.5156 3.3828 2.5156 5.9531 0 2.5859-0.83984 4.5742-2.5156 5.9688-1.6797 1.3984-4.0859 2.0938-7.2188 2.0938h-4.2031v8.5469h-6.3438zm6.3438 4.6094v6.8906h3.5312c1.2266 0 2.1758-0.29688 2.8438-0.89062 0.67578-0.60156 1.0156-1.457 1.0156-2.5625 0-1.1016-0.33984-1.9531-1.0156-2.5469-0.66797-0.59375-1.6172-0.89062-2.8438-0.89062z"/>
  </symbol>
  <symbol id="b" overflow="visible">
   <path d="m11.641-14.703c-1.3125 0-2.3125 0.46875-3 1.4062s-1.0312 2.293-1.0312 4.0625c0 1.7734 0.34375 3.1328 1.0312 4.0781 0.6875 0.9375 1.6875 1.4062 3 1.4062 1.2891 0 2.2734-0.46875 2.9531-1.4062 0.6875-0.94531 1.0312-2.3047 1.0312-4.0781 0-1.7695-0.34375-3.125-1.0312-4.0625-0.67969-0.9375-1.6641-1.4062-2.9531-1.4062zm0-4.2344c3.1758 0 5.6602 0.85938 7.4531 2.5781 1.7891 1.7188 2.6875 4.0938 2.6875 7.125 0 3.043-0.89844 5.4219-2.6875 7.1406-1.793 1.7188-4.2773 2.5781-7.4531 2.5781-3.1875 0-5.6836-0.85938-7.4844-2.5781-1.8047-1.7188-2.7031-4.0977-2.7031-7.1406 0-3.0312 0.89844-5.4062 2.7031-7.125 1.8008-1.7188 4.2969-2.5781 7.4844-2.5781z"/>
  </symbol>
  <symbol id="f" overflow="visible">
   <path d="m2.6406-7.2031v-11.281h5.9375v1.8438c0 1-0.007813 2.2617-0.015625 3.7812-0.011719 1.5117-0.015625 2.5156-0.015625 3.0156 0 1.4922 0.035156 2.5625 0.10938 3.2188 0.082031 0.65625 0.21875 1.1328 0.40625 1.4219 0.23828 0.38672 0.55078 0.68359 0.9375 0.89062 0.39453 0.21094 0.84766 0.3125 1.3594 0.3125 1.2266 0 2.1953-0.46875 2.9062-1.4062 0.70703-0.94531 1.0625-2.2656 1.0625-3.9531v-9.125h5.9062v18.484h-5.9062v-2.6719c-0.89844 1.0742-1.8438 1.8711-2.8438 2.3906-0.99219 0.50781-2.0859 0.76562-3.2812 0.76562-2.1367 0-3.7656-0.65625-4.8906-1.9688-1.1172-1.3125-1.6719-3.2188-1.6719-5.7188z"/>
  </symbol>
  <symbol id="s" overflow="visible">
   <path d="m8.75-2.6719v9.7031h-5.9062v-25.516h5.9062v2.7031c0.8125-1.082 1.7109-1.8789 2.7031-2.3906 0.98828-0.50781 2.1289-0.76562 3.4219-0.76562 2.2812 0 4.1484 0.90625 5.6094 2.7188 1.4688 1.8125 2.2031 4.1406 2.2031 6.9844 0 2.8555-0.73438 5.1875-2.2031 7-1.4609 1.8125-3.3281 2.7188-5.6094 2.7188-1.293 0-2.4336-0.25781-3.4219-0.76562-0.99219-0.51953-1.8906-1.3164-2.7031-2.3906zm3.9375-11.969c-1.2734 0-2.2461 0.46484-2.9219 1.3906-0.67969 0.92969-1.0156 2.2656-1.0156 4.0156s0.33594 3.0938 1.0156 4.0312c0.67578 0.92969 1.6484 1.3906 2.9219 1.3906 1.2578 0 2.2227-0.46094 2.8906-1.3906 0.66406-0.92578 1-2.2695 1-4.0312 0-1.7578-0.33594-3.0977-1-4.0156-0.66797-0.92578-1.6328-1.3906-2.8906-1.3906z"/>
  </symbol>
  <symbol id="r" overflow="visible">
   <path d="m17.281-17.906v4.4844c-1.2617-0.53125-2.4805-0.92578-3.6562-1.1875-1.1797-0.25781-2.293-0.39062-3.3438-0.39062-1.1172 0-1.9492 0.14062-2.5 0.42188-0.54297 0.27344-0.8125 0.69922-0.8125 1.2812 0 0.48047 0.20312 0.84375 0.60938 1.0938 0.41406 0.25 1.1602 0.4375 2.2344 0.5625l1.0312 0.15625c3.0312 0.38672 5.0664 1.0234 6.1094 1.9062 1.0508 0.875 1.5781 2.25 1.5781 4.125 0 1.9688-0.73047 3.4531-2.1875 4.4531-1.4492 0.99219-3.6172 1.4844-6.5 1.4844-1.2305 0-2.4961-0.10156-3.7969-0.29688-1.3047-0.1875-2.6406-0.47266-4.0156-0.85938v-4.5c1.1758 0.57422 2.3828 1.0078 3.625 1.2969 1.2383 0.28125 2.4922 0.42188 3.7656 0.42188 1.1562 0 2.0234-0.15625 2.6094-0.46875 0.58203-0.32031 0.875-0.79688 0.875-1.4219 0-0.53125-0.20312-0.92578-0.60938-1.1875-0.39844-0.25781-1.1953-0.45703-2.3906-0.59375l-1.0469-0.14062c-2.625-0.33203-4.4688-0.94141-5.5312-1.8281-1.0547-0.89453-1.5781-2.25-1.5781-4.0625 0-1.957 0.67188-3.4102 2.0156-4.3594 1.3438-0.94531 3.3984-1.4219 6.1719-1.4219 1.0938 0 2.2383 0.085938 3.4375 0.25 1.1953 0.16797 2.5 0.42969 3.9062 0.78125z"/>
  </symbol>
  <symbol id="q" overflow="visible">
   <path d="m15-25.688v3.875h-3.2656c-0.83594 0-1.418 0.15234-1.75 0.45312-0.32422 0.30469-0.48438 0.82812-0.48438 1.5781v1.2969h5.0469v4.2188h-5.0469v14.266h-5.9219v-14.266h-2.9375v-4.2188h2.9375v-1.2969c0-2.0078 0.5625-3.4922 1.6875-4.4531 1.125-0.96875 2.8633-1.4531 5.2188-1.4531z"/>
  </symbol>
  <symbol id="p" overflow="visible">
   <path d="m19.984-15.422c0.73828-1.1445 1.625-2.0156 2.6562-2.6094 1.0312-0.60156 2.1602-0.90625 3.3906-0.90625 2.125 0 3.7422 0.65625 4.8594 1.9688 1.1133 1.3125 1.6719 3.2148 1.6719 5.7031v11.266h-5.9531v-9.6406c0.007813-0.14453 0.015625-0.28906 0.015625-0.4375 0.007812-0.15625 0.015625-0.37891 0.015625-0.67188 0-1.3125-0.19531-2.2578-0.57812-2.8438-0.38672-0.59375-1.0078-0.89062-1.8594-0.89062-1.125 0-1.9961 0.46484-2.6094 1.3906-0.60547 0.92969-0.91797 2.2656-0.9375 4.0156v9.0781h-5.9531v-9.6406c0-2.0508-0.17969-3.3672-0.53125-3.9531-0.34375-0.59375-0.96875-0.89062-1.875-0.89062-1.1367 0-2.0117 0.46875-2.625 1.4062-0.61719 0.92969-0.92188 2.2578-0.92188 3.9844v9.0938h-5.9375v-18.484h5.9375v2.7031c0.72656-1.0508 1.5625-1.8359 2.5-2.3594 0.9375-0.53125 1.9727-0.79688 3.1094-0.79688 1.2812 0 2.4102 0.30859 3.3906 0.92188 0.97656 0.61719 1.7227 1.4805 2.2344 2.5938z"/>
  </symbol>
  <symbol id="o" overflow="visible">
   <path d="m21.438-11.266v11.266h-5.9531v-8.5781c0-1.625-0.039063-2.7383-0.10938-3.3438-0.074219-0.60156-0.19922-1.0469-0.375-1.3281-0.23047-0.38281-0.54297-0.6875-0.9375-0.90625-0.39844-0.21875-0.84375-0.32812-1.3438-0.32812-1.2422 0-2.2148 0.48047-2.9219 1.4375-0.69922 0.94922-1.0469 2.2656-1.0469 3.9531v9.0938h-5.9062v-25.688h5.9062v9.9062c0.89453-1.082 1.8438-1.8789 2.8438-2.3906 1-0.50781 2.1016-0.76562 3.3125-0.76562 2.1328 0 3.7539 0.65625 4.8594 1.9688 1.1133 1.3125 1.6719 3.2148 1.6719 5.7031z"/>
  </symbol>
  <symbol id="n" overflow="visible">
   <path d="m3.1094-24.656h7.0938l8.9688 16.906v-16.906h6.0156v24.656h-7.0938l-8.9688-16.906v16.906h-6.0156z"/>
  </symbol>
  <symbol id="m" overflow="visible">
   <path d="m21.438-11.266v11.266h-5.9531v-8.625c0-1.5938-0.039063-2.6914-0.10938-3.2969-0.074219-0.60156-0.19922-1.0469-0.375-1.3281-0.23047-0.38281-0.54297-0.6875-0.9375-0.90625-0.39844-0.21875-0.84375-0.32812-1.3438-0.32812-1.2422 0-2.2148 0.48047-2.9219 1.4375-0.69922 0.94922-1.0469 2.2656-1.0469 3.9531v9.0938h-5.9062v-18.484h5.9062v2.7031c0.89453-1.082 1.8438-1.8789 2.8438-2.3906 1-0.50781 2.1016-0.76562 3.3125-0.76562 2.1328 0 3.7539 0.65625 4.8594 1.9688 1.1133 1.3125 1.6719 3.2148 1.6719 5.7031z"/>
  </symbol>
  <symbol id="l" overflow="visible">
   <path d="m2.8438-18.484h5.9062v18.156c0 2.4766-0.59375 4.3672-1.7812 5.6719-1.1875 1.3008-2.9141 1.9531-5.1719 1.9531h-2.9219v-3.875h1.0312c1.1133 0 1.8789-0.25781 2.2969-0.76562 0.42578-0.5 0.64062-1.4961 0.64062-2.9844zm0-7.2031h5.9062v4.8125h-5.9062z"/>
  </symbol>
  <symbol id="k" overflow="visible">
   <path d="m17.781-17.906v4.8125c-0.80469-0.55078-1.6094-0.95703-2.4219-1.2188-0.80469-0.25781-1.6406-0.39062-2.5156-0.39062-1.6484 0-2.9336 0.48047-3.8594 1.4375-0.91797 0.96094-1.375 2.3047-1.375 4.0312 0 1.7305 0.45703 3.0781 1.375 4.0469 0.92578 0.96094 2.2109 1.4375 3.8594 1.4375 0.92578 0 1.8008-0.13281 2.625-0.40625 0.83203-0.28125 1.6016-0.6875 2.3125-1.2188v4.8281c-0.92969 0.34375-1.8711 0.59766-2.8281 0.76562-0.94922 0.17578-1.8984 0.26562-2.8438 0.26562-3.3438 0-5.9609-0.85156-7.8438-2.5625-1.875-1.7188-2.8125-4.1016-2.8125-7.1562 0-3.0391 0.9375-5.4141 2.8125-7.125 1.8828-1.7188 4.5-2.5781 7.8438-2.5781 0.96875 0 1.9219 0.089844 2.8594 0.26562 0.9375 0.16797 1.875 0.42188 2.8125 0.76562z"/>
  </symbol>
 </defs>
 <g>
  <path d="m349.96 0c-68.914 0.074219-135.38 25.559-186.68 71.578-51.301 46.016-83.832 109.34-91.367 177.84-7.5352 68.504 10.453 137.38 50.523 193.45 40.074 56.07 99.41 95.391 166.66 110.45 51.391 11.504 104.98 8.2812 154.63-9.293 49.641-17.578 93.324-48.797 126.03-90.07 32.707-41.277 53.109-90.941 58.867-143.29 5.7578-52.348-3.3633-105.26-26.312-152.66-22.953-47.398-58.801-87.367-103.44-115.31-44.637-27.949-96.25-42.742-148.91-42.684zm105.5 309.99c-2.1758 0.74219-4.4648 1.1055-6.7617 1.082h-87.914v31.781c0.32422 10.008-4.0859 19.578-11.902 25.836-3.3906 2.582-7.5352 3.9805-11.801 3.9805-4.2617 0-8.4062-1.3984-11.801-3.9805l-86.762-62.961c-7.793-6.2422-12.199-15.781-11.902-25.766-0.27344-9.9805 4.0977-19.523 11.836-25.832l86.629-62.824c3.4141-2.582 7.582-3.9805 11.867-3.9805 4.2812 0 8.4492 1.3984 11.867 3.9805 7.8203 6.2305 12.254 15.773 11.969 25.766v31.582h87.914c2.3281 0.097656 4.6211 0.625 6.7617 1.5547 5.6562 2.625 10.395 6.8945 13.59 12.25 3.1953 5.3555 4.707 11.551 4.332 17.777 0.30078 6.1758-1.2422 12.305-4.4336 17.602-3.1914 5.3008-7.8867 9.5312-13.488 12.152z"/>
  <use x="70" y="661.4375" xlink:href="#t"/>
  <use x="94.8125" y="661.4375" xlink:href="#d"/>
  <use x="111.488281" y="661.4375" xlink:href="#a"/>
  <use x="134.421875" y="661.4375" xlink:href="#j"/>
  <use x="157.238281" y="661.4375" xlink:href="#c"/>
  <use x="173.402344" y="661.4375" xlink:href="#a"/>
  <use x="196.335938" y="661.4375" xlink:href="#i"/>
  <use x="232.308594" y="661.4375" xlink:href="#h"/>
  <use x="256.511719" y="661.4375" xlink:href="#g"/>
  <use x="290.324219" y="661.4375" xlink:href="#e"/>
  <use x="315.105469" y="661.4375" xlink:href="#b"/>
  <use x="338.335938" y="661.4375" xlink:href="#f"/>
  <use x="362.40625" y="661.4375" xlink:href="#s"/>
  <use x="386.609375" y="661.4375" xlink:href="#r"/>
  <use x="70" y="695.25" xlink:href="#q"/>
  <use x="84.710938" y="695.25" xlink:href="#d"/>
  <use x="101.386719" y="695.25" xlink:href="#b"/>
  <use x="124.613281" y="695.25" xlink:href="#p"/>
  <use x="171.617188" y="695.25" xlink:href="#c"/>
  <use x="187.78125" y="695.25" xlink:href="#o"/>
  <use x="211.851562" y="695.25" xlink:href="#a"/>
  <use x="246.558594" y="695.25" xlink:href="#n"/>
  <use x="274.855469" y="695.25" xlink:href="#b"/>
  <use x="298.085938" y="695.25" xlink:href="#f"/>
  <use x="322.15625" y="695.25" xlink:href="#m"/>
  <use x="358" y="695.25" xlink:href="#e"/>
  <use x="382.78125" y="695.25" xlink:href="#d"/>
  <use x="399.457031" y="695.25" xlink:href="#b"/>
  <use x="422.683594" y="695.25" xlink:href="#l"/>
  <use x="434.273438" y="695.25" xlink:href="#a"/>
  <use x="457.207031" y="695.25" xlink:href="#k"/>
  <use x="477.25" y="695.25" xlink:href="#c"/>
 </g>
</svg>
